<svg viewBox="0 0 250 250" xmlns="http://www.w3.org/2000/svg" height="250" width="250"><path d="M89.83874999999999 27.46375c-22.30625 0.7025000000000001 -54.5325 2.47125 -83.4225 0 -0.59 15.398750000000001 0.47875 30.85875 1.8475 46.14375 0.0225 0.25 36.31875 1.24 36.31875 1.24S60.227500000000006 87.52125 63.4 90.96125l0.6825000000000001 -16c-0.0325 0.78125 23.31375 0.6325000000000001 25.06125 0.475 0.99875 -15.27 1.8462500000000002 -32.712500000000006 0.6950000000000001 -47.9725ZM25.60375 46.2025c-0.235 0.11249999999999999 -0.5775 -0.07875 -0.475 -0.3625a15.135000000000002 15.135000000000002 0 0 1 2.6900000000000004 -4.10625 19.66875 19.66875 0 0 1 -4.19375 -4.3 0.365 0.365 0 0 1 0.5 -0.5c1.6400000000000001 1.025 3.125 2.30875 4.68125 3.4725 0.99 -1.48 1.9037499999999998 -3.34625 3.325 -4.35 0.5974999999999999 -0.42125 1.2725 0.27375 1.145 0.875 -0.35125000000000006 1.625 -1.8375 3.2 -2.965 4.53125 3.64125 2.43875 3.9725 2.14 4.31375 3.28875a0.56 0.56 0 0 1 -0.38625 0.6787500000000001c-1.15375 0.29374999999999996 -2.11375 -0.4025 -5.0225 -2.61125a11.541250000000002 11.541250000000002 0 0 1 -3.6125000000000003 3.38375Zm43.43875 18.89375c-0.0775 -1.5325 0.0375 -3.07 0.02125 -4.60375 -6.3125 -0.125 -31.47375 -0.40375 -37.725 -0.6900000000000001 0.1925 1.7774999999999999 0.42250000000000004 3.55375 0.485 5.34375a0.67 0.67 0 0 1 -1.31 0.17500000000000002c-0.5775 -2.09125 -0.9099999999999999 -4.23875 -1.3650000000000002 -6.3549999999999995a1.07125 1.07125 0 0 1 1.0187499999999998 -1.33625c6.6425 -0.09875 13.313749999999999 0.26 19.955000000000002 0.39625s13.30375 0.25 19.95625 0.3825a1.075 1.075 0 0 1 1.05125 1.05125c0.11249999999999999 1.875 -0.052500000000000005 3.76375 0.07625 5.63625 0.095 1.38875 -2.09125 1.38875 -2.1637500000000003 0Zm3.975 -16.95375c-1.02125 0.25875 -1.7674999999999998 -0.13875 -5.0249999999999995 -2.6125a11.5425 11.5425 0 0 1 -3.6062499999999997 3.375c-0.23375 0.11499999999999999 -0.5775 -0.07625 -0.475 -0.3625a15.1175 15.1175 0 0 1 2.6887499999999998 -4.1049999999999995 19.69125 19.69125 0 0 1 -4.1925 -4.3 0.365 0.365 0 0 1 0.5 -0.49375c1.6412499999999999 1.02375 3.125 2.3075 4.68125 3.4712500000000004 0.99 -1.4812500000000002 1.9037499999999998 -3.3475 3.32625 -4.3525 0.59625 -0.42125 1.2725 0.27375 1.14375 0.875 -0.35125000000000006 1.625 -1.83875 3.2024999999999997 -2.9662500000000005 4.5337499999999995 3.6175 2.42375 3.9725 2.13375 4.3149999999999995 3.28875a0.56125 0.56125 0 0 1 -0.39 0.6825000000000001Z" fill="#38a1ff" stroke-width="1"></path><path d="M240.93125 85.90249999999999c-6.2124999999999995 -7.22375 -23.61125 -3.8274999999999997 -32.44125 0.07 -0.83375 0.36874999999999997 -0.195 1.51 0.5800000000000001 1.375 5.197500000000001 -0.9075 10.157499999999999 -2.69125 15.4575 -3.1037500000000002 4.29 -0.33125000000000004 11.336250000000001 0.06 14.2375 3.1062499999999997 3.24125 3.4037499999999996 2.6900000000000004 9.432500000000001 1.5237500000000002 13.567499999999999 -3.7162499999999996 13.20125 -15.68625 19.677500000000002 -26.1125 34.3575a90.19 90.19 0 0 0 -16.955 53.6825 0.20625000000000002 0.20625000000000002 0 0 0 0.41250000000000003 0 100.94 100.94 0 0 1 19.75 -54c8.875 -11.73 23.78 -21.29 26.0725 -36.3425 0.64375 -4.24 0.41000000000000003 -9.3 -2.525 -12.7125Z" fill="#191919" stroke-width="1"></path><path d="M172.01875 96.805c-1.46 2.1425 -1.97875 5.26375 -2.7075 7.73 -0.28375 0.96375 -1.2137499999999999 3.365 0.63625 3.3187499999999996a0.40375 0.40375 0 0 0 0.10625000000000001 -0.7887500000000001c-1.26 -0.44125 2.375 -8.805 2.43375 -10.131250000000001a0.25 0.25 0 0 0 -0.46875 -0.12875Z" fill="#191919" stroke-width="1"></path><path d="M173.9125 110.03999999999999c-1.8962499999999998 -0.90125 -3.9487499999999995 -0.375 -5.83375 0.24 -0.14875 0.05 -0.16875 0.33375 0 0.3175a49.595 49.595 0 0 1 3.8375 -0.155 3.42125 3.42125 0 0 0 0.35374999999999995 3.5 3.6475 3.6475 0 0 0 3.79875 1.375 0.7825 0.7825 0 0 0 0.57375 -0.75 5.03375 5.03375 0 0 0 -2.7300000000000004 -4.5275Z" fill="#191919" stroke-width="1"></path><path d="M177.17625 100.70375a3.40625 3.40625 0 0 0 -0.3525 2.0975 0.875 0.875 0 0 0 0.875 0.66625c0.8250000000000001 -0.0925 1.03625 -1.98875 0.875 -2.58a0.78375 0.78375 0 0 0 -1.3975000000000002 -0.18375Z" fill="#191919" stroke-width="1"></path><path d="M180.625 99.40125c-0.48750000000000004 -1.6525 -2.6187500000000004 -2.7375 -4.04 -3.4825a0.34875 0.34875 0 0 0 -0.5075000000000001 0.38875c0.22625 0.83375 1.03125 1.2762499999999999 1.68125 1.7574999999999998a13.75 13.75 0 0 0 2.31875 1.75 0.375 0.375 0 0 0 0.5475 -0.41375Z" fill="#191919" stroke-width="1"></path><path d="M168.84375 95.1525a5.347499999999999 5.347499999999999 0 0 0 -2.0949999999999998 0.95 5.64625 5.64625 0 0 0 -1.8074999999999999 1.3625 0.44125 0.44125 0 0 0 0.375 0.66 5.7125 5.7125 0 0 0 2.09375 -0.8837499999999999 5.25 5.25 0 0 0 1.86375 -1.33 0.5075000000000001 0.5075000000000001 0 0 0 -0.42999999999999994 -0.75875Z" fill="#191919" stroke-width="1"></path><path d="M167.25 99.5c-0.8275 0.1525 -1.02375 1.8587500000000001 -0.5675 2.58875a0.56125 0.56125 0 0 0 0.8674999999999999 0.11124999999999999c0.64625 -0.56 1.13125 -2.9725 -0.3 -2.7Z" fill="#191919" stroke-width="1"></path><path d="M162.73875 99.42999999999999a0.3375 0.3375 0 0 0 -0.625 -0.1675c-1.2687499999999998 2.125 -1.46 5.3125 -1.375 7.73625 0.15625 4.4725 1.73625 8.422500000000001 5.433750000000001 11a10.7725 10.7725 0 0 0 0.235 3.7924999999999995 0.42875 0.42875 0 0 0 0.73875 0 8.418750000000001 8.418750000000001 0 0 0 0.275 -3.04125 6.840000000000001 6.840000000000001 0 0 0 4.97375 0.625 0.27125 0.27125 0 0 0 0 -0.5175c-6.80125 -1.4937500000000001 -10.215 -6.02125 -10.20375 -13.0325 0.00375 -2.13375 0.65 -4.27375 0.5475 -6.395Z" fill="#191919" stroke-width="1"></path><path d="M138.5525 105.4125c-3.3274999999999997 -3.93125 -3.72125 -5.45 -5.25 -6.6875a0.4 0.4 0 0 0 -0.6625000000000001 0.385c0.53125 2.5862499999999997 2.84 5 4.4887500000000005 7A52.4475 52.4475 0 0 0 158.32625000000002 121.625c0.54125 0.22375 0.94 -0.71 0.4025 -0.95a58.8425 58.8425 0 0 1 -20.176249999999996 -15.262500000000001Z" fill="#191919" stroke-width="1"></path><path d="M140.07250000000002 97.21375c0.125 2.5300000000000002 0.61375 5.54125 2.3474999999999997 7.51A25.23875 25.23875 0 0 1 138.75 104a0.20125 0.20125 0 0 0 -0.10500000000000001 0.38875c1.8662500000000002 0.64625 3.84125 1.0525 5.67875 1.7574999999999998a0.7162499999999999 0.7162499999999999 0 0 0 0.6925000000000001 -1.19c-2.68125 -2.18 -3.295 -5.012499999999999 -3.44625 -8.35375a17.575 17.575 0 0 1 1.125 -7.875c0.0825 -0.20750000000000002 -0.18875 -0.36624999999999996 -0.35624999999999996 -0.27375 -2.8499999999999996 1.5775000000000001 -2.40375 6.0725 -2.26625 8.76Z" fill="#191919" stroke-width="1"></path><path d="M160.59125 97.19749999999999c-2.5574999999999997 0.59375 -4.01875 1.63875 -8.7325 1.41125s-7.3075 -1.73875 -9.405 -1.7574999999999998a0.29625 0.29625 0 0 0 -0.14875 0.5475 8.64625 8.64625 0 0 0 2.7175 1.2275c0.07625 0.4025 0.5675 2.5625 0.60625 2.8187499999999996 0.06 0.41625 0.7324999999999999 0.39 0.8150000000000001 0a3.79 3.79 0 0 0 -0.17500000000000002 -2.48625 29.79 29.79 0 0 0 6.14375 1.06875c2.8299999999999996 0.14500000000000002 6.375 -0.1875 8.588750000000001 -2.125 0.33625000000000005 -0.28875 -0.02375 -0.79375 -0.41000000000000003 -0.705Z" fill="#191919" stroke-width="1"></path><path d="M142.85875000000001 89.2275c4.625 2.16875 11.797500000000001 4.98625 14.950000000000001 1.5a0.625 0.625 0 0 0 -0.6074999999999999 -1.0425 32.76375 32.76375 0 0 1 -3.11 1.13125c-3 0.625 -4.625 -0.23249999999999998 -11.0275 -2.085 -0.28375 -0.075 -0.485 0.36374999999999996 -0.20500000000000002 0.49625Z" fill="#191919" stroke-width="1"></path><path d="M119.63875 122.92500000000001c2.54 3.0525 12.275 14.84 15.0875 17.08625a183.14 183.14 0 0 0 -3.1125000000000003 18.563750000000002c-0.9299999999999999 8.095 -1.92625 22.973750000000003 -1.125 31.105a1.03125 1.03125 0 0 0 2.0612500000000002 0c0.14500000000000002 -7.70375 -1.5812499999999998 -28.34 6.07875 -60.955000000000005a0.5 0.5 0 0 0 -0.96375 -0.26625q-1.44375 5.01 -2.605 10.075000000000001c-1.68875 -1.9 -19.19 -22.195 -21.48875 -28a29.4725 29.4725 0 0 1 -1.775 -16.53375c1.875 -8.72375 11.155 -9.66125 19.90625 -8.06 3.0175 0.55 5.932500000000001 1.5462500000000001 8.967500000000001 1.97875 0.39875 0.056249999999999994 0.735 -0.5 0.3025 -0.7162499999999999a43.33 43.33 0 0 0 -17.625 -3.3600000000000003c-4.907500000000001 0.26375 -9.88125 2.015 -12.08 6.74 -2.2600000000000002 4.8549999999999995 -1.715 11.0975 -0.5 16.15 1.5175 6.29875 4.78625 11.28125 8.87125 16.192500000000003Z" fill="#191919" stroke-width="1"></path><path d="M217.92874999999998 165.44c-0.41625 19.361250000000002 -0.7437499999999999 19.901249999999997 -0.21499999999999997 23.464999999999996 0.08 0.5237499999999999 0.93375 0.5 1.0325 0 0.8350000000000001 -4.175 1.25 -35.17875 1.3187499999999999 -39.557500000000005 0.027499999999999997 -1.59625 0.07 -2.48 -1.635 -2.74125a63.25 63.25 0 0 0 -6.5825 -0.7025000000000001 0.5575 0.5575 0 0 0 -0.14875 1.09125c1.8074999999999999 0.45625 3.81875 0.5 5.58 1.0625 1.25 0.39625 1.0150000000000001 1.11125 0.9862500000000001 2.275 -0.026250000000000002 0.98375 -0.25 11.05875 -0.33625000000000005 15.1075Z" fill="#191919" stroke-width="1"></path><path d="M229.725 193.63125c-8.94375 -0.57875 -18 0.00875 -26.97 0.15125 -8.99 0.14250000000000002 -100.44375000000001 0.76875 -110.52875 1.13375a0.23875000000000002 0.23875000000000002 0 0 0 0 0.47625c24.805 1.33 82.42000000000002 0.77625 107.23750000000001 0.39875 10.045 -0.1525 20.26875 0.165 30.2575 -0.91375a0.625 0.625 0 0 0 0.00375 -1.24625Z" fill="#191919" stroke-width="1"></path><path d="M193.14499999999998 200.14375c-2.88875 -0.18625 -4.9125000000000005 1.48875 -6.5200000000000005 3.8825 -2.70375 4.0325 -1.6475 7.70875 0.42250000000000004 8.68625 2.68125 1.25 4.625 0.04625 6.16625 -1.695a11.3375 11.3375 0 0 0 3.1075000000000004 -5.5775c0.3775 -2.5387500000000003 -0.44625 -5.1225 -3.17625 -5.296250000000001Zm-6.55875 7.895a2.875 2.875 0 0 1 2.335 -0.9225 10.125 10.125 0 0 0 -0.93125 4.31 3.0275000000000003 3.0275000000000003 0 0 1 -1.40375 -3.3875Zm2.42625 3.64125a7.578749999999999 7.578749999999999 0 0 1 0.79125 -4.5 4.1762500000000005 4.1762500000000005 0 0 1 3.00875 1.9625000000000001c-1.00125 1.2325 -2.2325 2.6237500000000002 -3.8 2.5374999999999996Z" fill="#191919" stroke-width="1"></path><path d="M50.47625 166.7925c0.39875 -0.035 0.56375 -0.67625 0.10250000000000001 -0.75875 -4.68625 -0.83375 -24.8075 -1.7274999999999998 -26.973750000000003 -1.59625 -0.16375 -3 -2.2 -13.395 -4.9399999999999995 -30.768749999999997 -1.5575 -9.88625 -2.75 -19.82 -4.18875 -29.72 67.85249999999999 -0.8287500000000001 71.625 -0.8400000000000001 82.47999999999999 -1.3425A55.83624999999999 55.83624999999999 0 0 0 98.35750000000002 110c4.46375 22.29 7.571250000000001 49.33500000000001 9.5425 57.55375 -0.24125000000000002 0.07 -25.14125 0.01 -30.9225 0.06625a0.33 0.33 0 0 0 0 0.66c5.59375 0.59875 11.16625 1.0675 16.7925 1.295 2.665 0.10625000000000001 14.741249999999999 0.5675 15.82 -0.10125a1.045 1.045 0 0 0 0.5275 -1.08875c-0.18125 -3.38375 -2.08375 -12.4725 -2.73625 -16.69 -0.8550000000000001 -5.5 -1.6625 -11 -2.5625 -16.5 -0.91375 -5.586250000000001 -6.11125 -31.61375 -6.84375 -33.4475a0.8450000000000001 0.8450000000000001 0 0 0 -0.76875 -0.61625c-22.182499999999997 -0.47625 -61.18375 0.875 -83.01375 0.75875 -0.81125 0 -1.025 0.3 -1.06875 0.91625 -0.5 7.0425 5.83125 46.8 6.94875 53.8575a77.7075 77.7075 0 0 0 1.39875 8.2775c0.25625 0.935 -0.375 1.0975 14.69875 1.785a107.35875 107.35875 0 0 0 14.30625 0.06625Z" fill="#191919" stroke-width="1"></path><path d="M174.925 200.4375c-11.97125 -0.90625 -24.01875 -1.2137499999999999 -36.01 -1.7974999999999999 -5.89375 -0.28625 -35.825 -1.45125 -36.40875 -1.1737499999999998 -0.715 0.33875 -6.48625 7.385000000000001 -8.66125 10.40625a11.28375 11.28375 0 0 0 -4.22 -3.695 20.8825 20.8825 0 0 0 -11.799999999999999 -2.39125c0.02 -3.67375 -1.9725000000000001 -20.79875 -2.85625 -25.65125 -1.45 -7.9662500000000005 -4.585 -21.17125 -7.68 -28.61125 -1.2762499999999999 -3.0675000000000003 -3.3975 -7.967499999999999 -7.043749999999999 -8.844999999999999 -3.9450000000000003 -0.95 -5.48875 3.7325000000000004 -6.20125 6.625 -2.34375 9.5175 -1.80375 19.78375 -1.2762499999999999 29.488750000000003 0.54125 10 2.1412500000000003 25 4.5 33.955 0.11499999999999999 0.4425 0.875 0.375 0.82125 -0.11124999999999999 -1.2125 -10.703750000000001 -5.1375 -34.5 -3.2350000000000003 -55.24 0.19375 -2.13375 1.25 -10.40125 3.11 -12.033750000000001 3.4549999999999996 -3.03125 7.09375 6.1875 7.891249999999999 8.317499999999999a183.94625000000002 183.94625000000002 0 0 1 9.0925 41.0975c0.42250000000000004 5.05625 0.59625 10.157499999999999 1.41125 15.16375 -2.34125 3.7887500000000003 -6.63875 4.2775 -10.82 5.28a0.6737500000000001 0.6737500000000001 0 0 0 0.17875 1.31625c4.75 0 11.61375 -1.6925000000000001 12.25 -7.375a17.60875 17.60875 0 0 0 -0.15125 -2.46625c3.04375 0.82125 6.186249999999999 1.055 9.155 2.27875 2.99125 1.23625 7.05375 3.96125 5.793749999999999 7.78625 -2.6675 8.085 -32.125 10.61375 -45.39125 3.375 -2.25 -1.23 -5.09875 -3.05375 -4.65 -6 0.65625 -4.31375 4.93375 -6.2 8.57375 -7.4275a0.47375 0.47375 0 0 0 -0.25 -0.9125c-3.7037500000000003 0.5237499999999999 -7.32125 2.17 -9.2075 5.55625a6.2124999999999995 6.2124999999999995 0 0 0 1.1175 8.040000000000001c8.9275 8.36125 32.50875 8.79625 44.2375 4.34 3.0112499999999995 -1.1475 6.425 -2.9387499999999998 7.512499999999999 -6.21a6.0512500000000005 6.0512500000000005 0 0 0 0.31 -2.3325c10.57375 1.9037499999999998 68.73 4.1325 71.73875 3.82625a41.462500000000006 41.462500000000006 0 0 0 4.1825 -5.24c1.7674999999999998 -2.4537500000000003 3.39625 -5.074999999999999 5.22625 -7.48625 0.785 -1.05125 -0.665 -1.81 -1.24 -1.8525Zm-8.9875 6.83c-0.35000000000000003 -0.01625 -4.1575 -0.22375 -8.815 -0.48125a39.22375 39.22375 0 0 1 -3.7425 4.9887500000000005c-0.4025 0.375 -1.155 -0.06125 -0.9299999999999999 -0.60625a38.54125 38.54125 0 0 1 2.8225 -4.485c-7.571250000000001 -0.41625 -17.822499999999998 -0.92375 -19.57 -0.9825a43.693749999999994 43.693749999999994 0 0 1 -3.375 4.5600000000000005 0.48875 0.48875 0 0 1 -0.75 -0.56c0.11875 -0.26375 1.30625 -2.13375 2.5625 -4.05375 -4.73875 -0.16375 -12.23875 -0.45499999999999996 -18.76875 -0.72875a34.54125 34.54125 0 0 1 -3.05625 4.39625c-0.36 0.35624999999999996 -1.5375 0.30374999999999996 -1.41875 -0.18375a26.775000000000002 26.775000000000002 0 0 1 2.81625 -4.2775c-5.9887500000000005 -0.25 -10.81625 -0.48250000000000004 -11.325000000000001 -0.56125s-1.15625 -1.055 -0.6950000000000001 -1.25c0.28375 -0.11875 5.60625 0.06625 13.085 0.3925 1.1612500000000001 -1.5237500000000002 2.2337499999999997 -2.8525 2.6387500000000004 -3.25 0.5 -0.47750000000000004 1.2662499999999999 0.31625000000000003 0.84375 0.8275 -0.355 0.42875 -1.21625 1.59375 -1.875 2.4875 5.550000000000001 0.25 12.09625 0.56 18.583750000000002 0.8875 0.94875 -1.42875 1.81 -2.68125 2.1325 -3.06125a0.6525000000000001 0.6525000000000001 0 0 1 1.04625 0.77875c-0.155 0.22375 -0.795 1.17625 -1.6 2.36125 7.18 0.36 14.18125 0.72875 19.57 1.025a18.2175 18.2175 0 0 1 3.625 -4.175 0.27 0.27 0 0 1 0.3825 0.25 18.2325 18.2325 0 0 1 -2.21875 4.02625c4.75 0.26375 7.891249999999999 0.45499999999999996 8.195 0.5 0.6775 0.12 0.5025000000000001 1.2137499999999999 -0.16375 1.1749999999999998Z" fill="#191919" stroke-width="1"></path><path d="M171.00625000000002 133.8475c0 -0.14875 -1.1375 -0.06375 -2.1037500000000002 -0.22499999999999998 -0.875 -0.14500000000000002 -1.5725 -0.56 -1.69875 -0.385 -16.5 22.5475 -11.70375 45.39125 -11.70375 45.39125a44.35625 44.35625 0 0 0 8.7125 8.44625q3.1424999999999996 -4.67 6.28 -9.34c-2.25 -5.896249999999999 -2.75 -12.2975 -3.18 -18.59625a58.93 58.93 0 0 1 0.81125 -16.48625 53.84375 53.84375 0 0 1 2.8825000000000003 -8.805Z" fill="#38a1ff" stroke-width="1"></path><path d="M218.16 96.29125c-6.25 2.625 -11.82 7.33375 -16.592499999999998 12.0825 -6.5225 6.5 -10.305 13.865 -14.82 12.74 -0.052500000000000005 -1.1375 -0.92375 -1.75 -1.5575 -2.61125a36.1575 36.1575 0 0 0 1.02 -5.97c0.1975 -1.125 1.21625 -5.76375 1.5925 -6.89875a77.92500000000001 77.92500000000001 0 0 1 3.4162500000000002 -7.508749999999999 20.782500000000002 20.782500000000002 0 0 0 4.65375 -0.44875 7.4275 7.4275 0 0 0 2.4274999999999998 -1.0325 8.053749999999999 8.053749999999999 0 0 1 3.03375 -0.5800000000000001s-0.80125 5.078749999999999 0.32625000000000004 6.331250000000001c1.105 1.2275 2.925 0.5375 4.2975 0.30374999999999996 0.5874999999999999 -0.10250000000000001 0.56375 -0.8899999999999999 0.15125 -1.1675 -1.6500000000000001 -1.125 -4.295 1.4149999999999998 -2.67125 -6.288749999999999a22.25 22.25 0 0 1 3.89875 -8.64125c0.1475 -0.19125 -0.155 -0.3825 -0.3175 -0.25a20.7125 20.7125 0 0 0 -2.4925 2.4699999999999998c-3.0475000000000003 0 -5.03625 0.97 -9.455 -0.085 1.23 -0.865 3.265 -2.7875 3.5775 -2.51a17.3325 17.3325 0 0 0 -6.8125 -3.68375 9.3 9.3 0 0 1 4.6825 -2.75 22.1 22.1 0 0 0 -10.51 -0.785 14.90375 14.90375 0 0 1 3.64375 -5.5337499999999995 17.978749999999998 17.978749999999998 0 0 0 -13.21375 7.36375 12.184999999999999 12.184999999999999 0 0 1 3.27375 -8.465 16.3525 16.3525 0 0 0 -10.540000000000001 9.58625 9.83625 9.83625 0 0 1 -1.66125 -6.55625 9.7975 9.7975 0 0 0 -2.83625 7.595l-3.3375 -4.03a24.8675 24.8675 0 0 0 1.64875 17.05375 10.5 10.5 0 0 1 5.5825000000000005 -5.237500000000001 5.9750000000000005 5.9750000000000005 0 0 1 -3.05625 -3.7687500000000003 31.52625 31.52625 0 0 0 14.75 8.5 7.32625 7.32625 0 0 1 3.2624999999999997 1.36c2.43375 2.20375 0.8300000000000001 6.345 0.625 8.93625 -0.08625000000000001 1.125 -0.20500000000000002 3.25 1.125 4.125a37.79875 37.79875 0 0 0 -1.0262499999999999 7.5c-0.18125 -0.03375 -11.76 9.233749999999999 -11.935 9.8175s1.1949999999999998 7.85875 1.1837499999999999 9.5075a0.61625 0.61625 0 0 0 1.04 0.4325q4.7325 -5.58875 9.35875 -11.26875a14.3525 14.3525 0 0 0 2.6387500000000004 -3.645c1.51625 1.21125 4.6987499999999995 -0.22749999999999998 5.938750000000001 -1.1400000000000001 4.76875 -3.51375 6.46875 -8.25 16.27875 -16.236250000000002 3.1987500000000004 -2.60125 6.665 -4.81125 9.942499999999999 -7.2975 0.5925 -0.44499999999999995 0.28625 -1.66125 -0.535 -1.315Zm-33.08125 -1.31a31.82125 31.82125 0 0 1 -4.6475 -5.5925 0.55375 0.55375 0 0 0 -0.8637499999999999 -0.11249999999999999c-0.5137499999999999 0.56375 -1.48 1.74125 -2.42 1.1575 -0.875 -0.5475 -0.35624999999999996 -1.29625 0.0625 -1.875a15.071250000000001 15.071250000000001 0 0 1 1.6525 -1.76125 14.342500000000001 14.342500000000001 0 0 0 4.2175 2.46375 0.6525000000000001 0.6525000000000001 0 1 0 0.5 -1.1975 16.16 16.16 0 0 1 -3.0512499999999996 -1.55875c0.9075 -1.8074999999999999 1.2137499999999999 -1.9762499999999998 1.4449999999999998 -1.785 0.56375 0.31375 1.685 2.00875 2.8025 2.1775a0.55625 0.55625 0 0 0 0.42625 -1.01 10.831249999999999 10.831249999999999 0 0 1 -1.61625 -1.045c0.49125 -0.30374999999999996 1.045 -0.7025000000000001 1.57 -0.55125s0.8899999999999999 0.7625 1.2787499999999998 1.135c5.34875 5.1425 13.565000000000001 6.25 17.43625 4.25a16.04125 16.04125 0 0 0 -2.3375000000000004 5.415 3.7175000000000002 3.7175000000000002 0 0 0 -3.365 0.35874999999999996c-2 1.4649999999999999 -4.0525 1.61 -6.47625 1.66625 -2.5275 0.07125000000000001 -4.745 -0.28 -6.6137500000000005 -2.135Zm-0.195 27.178749999999997a13.274999999999999 13.274999999999999 0 0 1 -2.05125 2.6774999999999998c-0.59 0.75 -5.932500000000001 7.4624999999999995 -8.01 10.06875 0.02 -2.1837500000000003 -1.6625 -7.125 -1.59 -7.4375s7.08375 -5.56375 10.655 -8.18125c0.12625 0.08750000000000001 1.53125 1.5 0.9962500000000001 2.8725Z" fill="#191919" stroke-width="1"></path><path d="M170.06625 127.66c-0.06875 -0.3025 -2.6187500000000004 -3.2874999999999996 -3.1624999999999996 -4.22375 -0.6950000000000001 -1.1937499999999999 -1.0525 -2.60625 -1.75 -3.77 -0.70875 -1.19 -2.16 -0.25 -3.0175 0.51125 -1.25 1.11125 -0.33625000000000005 4.1525 -0.125 5.58a65.89750000000001 65.89750000000001 0 0 0 1.9500000000000002 8.27125 0.6887500000000001 0.6887500000000001 0 0 0 1.2425 0.16125c0.81 -1.23 4.9325 -6.22625 4.8625 -6.53Zm-5.18375 4.60375a103.6125 103.6125 0 0 1 -1.19 -4.45875c-0.235 -0.97875 -1.25 -5.965 -0.7162499999999999 -6.7375a3.60875 3.60875 0 0 1 1.0187499999999998 -0.6325000000000001c0.47875 0.02 0.3625 0.15125 0.5912499999999999 0.63625a20.52375 20.52375 0 0 0 4.39875 6.14375 0.18125 0.18125 0 0 0 0.036250000000000004 0.02375l-0.02 0.0125a25.4725 25.4725 0 0 0 -4.11875 5.012499999999999Z" fill="#191919" stroke-width="1"></path><path d="M214.02 67.68875a4.10875 4.10875 0 0 1 2.6350000000000002 0.0925 1.98 1.98 0 0 1 1.1975 2.16c-0.67 2.55125 -6.702500000000001 1.38625 -12.891250000000001 4.7425a15.52 15.52 0 0 1 9.05875 -6.995Z" fill="#38a1ff" stroke-width="1"></path><path d="M164.07125000000002 57.6725a24.01625 24.01625 0 0 1 -3.6475 -2.8949999999999996 2.315 2.315 0 0 1 -0.59 -2.395 2.11625 2.11625 0 0 1 2.5625 -0.75 6.28 6.28 0 0 1 3.5875000000000004 3.77875 12.645 12.645 0 0 1 0.10874999999999999 5.9925c0.25375000000000003 -1.52875 -0.9025 -2.8337499999999998 -2.02125 -3.7312499999999997Z" fill="#38a1ff" stroke-width="1"></path><path d="M147.10750000000002 64.55250000000001a3.3225 3.3225 0 0 1 1.7925 -4.08625 8.0075 8.0075 0 0 1 6.959999999999999 0.8674999999999999c2.6675 1.92875 5.401249999999999 4.7425 5.125 8.25a7.875 7.875 0 0 0 -5.4125 -3.03625c-2.78125 -0.22375 -6.9125000000000005 1.2975 -8.465 -1.995Z" fill="#38a1ff" stroke-width="1"></path><path d="M168.1375 131.35375a14.741249999999999 14.741249999999999 0 0 1 2.6737499999999996 -3.3975 0.7887500000000001 0.7887500000000001 0 0 1 0.75 0.08 8.125 8.125 0 0 1 0.15125 4.165c-0.5874999999999999 0.9037499999999999 -1.355 0.7975 -2.4362500000000002 0.65625 -1.43875 -0.19375 -1.635 -0.7137499999999999 -1.13875 -1.5037500000000001Z" fill="#38a1ff" stroke-width="1"></path></svg>